<mxfile host="app.diagrams.net" modified="2023-08-31T08:22:34.391Z" agent="Mozilla/5.0 (Windows NT 10.0; Win64; x64) AppleWebKit/537.36 (KHTML, like Gecko) Chrome/116.0.0.0 Safari/537.36" etag="Wi856PgP3sVrKrbvB1tD" version="21.6.8" type="github" pages="2">
  <diagram id="nRFKnmuubMf-2pafPmXI" name="Page-1">
    <mxGraphModel dx="5239" dy="4328" grid="1" gridSize="1" guides="1" tooltips="1" connect="1" arrows="1" fold="1" page="1" pageScale="1" pageWidth="827" pageHeight="1169" math="0" shadow="0">
      <root>
        <mxCell id="0" />
        <mxCell id="1" parent="0" />
        <mxCell id="AD1VWF7FpgDheTf7ruo7-1" value="" style="endArrow=none;html=1;rounded=0;fillColor=#8AADFF;" parent="1" edge="1">
          <mxGeometry width="50" height="50" relative="1" as="geometry">
            <mxPoint x="450" y="350" as="sourcePoint" />
            <mxPoint x="500" y="300" as="targetPoint" />
          </mxGeometry>
        </mxCell>
        <mxCell id="AD1VWF7FpgDheTf7ruo7-2" value="" style="endArrow=none;html=1;rounded=0;fillColor=#8AADFF;" parent="1" edge="1">
          <mxGeometry width="50" height="50" relative="1" as="geometry">
            <mxPoint x="450" y="420" as="sourcePoint" />
            <mxPoint x="450" y="350" as="targetPoint" />
          </mxGeometry>
        </mxCell>
        <mxCell id="AD1VWF7FpgDheTf7ruo7-3" value="" style="endArrow=none;html=1;rounded=0;fillColor=#8AADFF;" parent="1" edge="1">
          <mxGeometry width="50" height="50" relative="1" as="geometry">
            <mxPoint x="500" y="370" as="sourcePoint" />
            <mxPoint x="500" y="300" as="targetPoint" />
          </mxGeometry>
        </mxCell>
        <mxCell id="AD1VWF7FpgDheTf7ruo7-4" value="" style="endArrow=none;html=1;rounded=0;fillColor=#8AADFF;" parent="1" edge="1">
          <mxGeometry width="50" height="50" relative="1" as="geometry">
            <mxPoint x="450" y="420" as="sourcePoint" />
            <mxPoint x="500" y="370" as="targetPoint" />
          </mxGeometry>
        </mxCell>
        <mxCell id="AD1VWF7FpgDheTf7ruo7-9" value="" style="endArrow=none;html=1;rounded=0;fillColor=#8AADFF;" parent="1" edge="1">
          <mxGeometry width="50" height="50" relative="1" as="geometry">
            <mxPoint x="470" y="350" as="sourcePoint" />
            <mxPoint x="520" y="300" as="targetPoint" />
          </mxGeometry>
        </mxCell>
        <mxCell id="AD1VWF7FpgDheTf7ruo7-10" value="" style="endArrow=none;html=1;rounded=0;fillColor=#8AADFF;" parent="1" edge="1">
          <mxGeometry width="50" height="50" relative="1" as="geometry">
            <mxPoint x="470" y="420" as="sourcePoint" />
            <mxPoint x="470" y="350" as="targetPoint" />
          </mxGeometry>
        </mxCell>
        <mxCell id="AD1VWF7FpgDheTf7ruo7-11" value="" style="endArrow=none;html=1;rounded=0;fillColor=#8AADFF;" parent="1" edge="1">
          <mxGeometry width="50" height="50" relative="1" as="geometry">
            <mxPoint x="520" y="370" as="sourcePoint" />
            <mxPoint x="520" y="300" as="targetPoint" />
          </mxGeometry>
        </mxCell>
        <mxCell id="AD1VWF7FpgDheTf7ruo7-12" value="" style="endArrow=none;html=1;rounded=0;fillColor=#8AADFF;" parent="1" edge="1">
          <mxGeometry width="50" height="50" relative="1" as="geometry">
            <mxPoint x="470" y="420" as="sourcePoint" />
            <mxPoint x="520" y="370" as="targetPoint" />
          </mxGeometry>
        </mxCell>
        <mxCell id="AD1VWF7FpgDheTf7ruo7-13" value="" style="endArrow=none;html=1;rounded=0;fillColor=#8AADFF;" parent="1" edge="1">
          <mxGeometry width="50" height="50" relative="1" as="geometry">
            <mxPoint x="450" y="420" as="sourcePoint" />
            <mxPoint x="470" y="420" as="targetPoint" />
          </mxGeometry>
        </mxCell>
        <mxCell id="AD1VWF7FpgDheTf7ruo7-14" value="" style="endArrow=none;html=1;rounded=0;fillColor=#8AADFF;" parent="1" edge="1">
          <mxGeometry width="50" height="50" relative="1" as="geometry">
            <mxPoint x="450" y="350" as="sourcePoint" />
            <mxPoint x="470" y="350" as="targetPoint" />
          </mxGeometry>
        </mxCell>
        <mxCell id="AD1VWF7FpgDheTf7ruo7-15" value="" style="endArrow=none;html=1;rounded=0;fillColor=#8AADFF;" parent="1" edge="1">
          <mxGeometry width="50" height="50" relative="1" as="geometry">
            <mxPoint x="500" y="370" as="sourcePoint" />
            <mxPoint x="520" y="370" as="targetPoint" />
          </mxGeometry>
        </mxCell>
        <mxCell id="AD1VWF7FpgDheTf7ruo7-17" value="" style="endArrow=none;html=1;rounded=0;fillColor=#8AADFF;" parent="1" edge="1">
          <mxGeometry width="50" height="50" relative="1" as="geometry">
            <mxPoint x="500" y="300" as="sourcePoint" />
            <mxPoint x="520" y="300" as="targetPoint" />
          </mxGeometry>
        </mxCell>
        <mxCell id="AD1VWF7FpgDheTf7ruo7-19" value="" style="endArrow=none;html=1;rounded=0;" parent="1" edge="1">
          <mxGeometry width="50" height="50" relative="1" as="geometry">
            <mxPoint x="569.71" y="340" as="sourcePoint" />
            <mxPoint x="619.71" y="290" as="targetPoint" />
          </mxGeometry>
        </mxCell>
        <mxCell id="AD1VWF7FpgDheTf7ruo7-20" value="" style="endArrow=none;html=1;rounded=0;" parent="1" edge="1">
          <mxGeometry width="50" height="50" relative="1" as="geometry">
            <mxPoint x="569.71" y="410" as="sourcePoint" />
            <mxPoint x="569.71" y="340" as="targetPoint" />
          </mxGeometry>
        </mxCell>
        <mxCell id="AD1VWF7FpgDheTf7ruo7-21" value="" style="endArrow=none;html=1;rounded=0;" parent="1" edge="1">
          <mxGeometry width="50" height="50" relative="1" as="geometry">
            <mxPoint x="619.71" y="360" as="sourcePoint" />
            <mxPoint x="619.71" y="290" as="targetPoint" />
          </mxGeometry>
        </mxCell>
        <mxCell id="AD1VWF7FpgDheTf7ruo7-22" value="" style="endArrow=none;html=1;rounded=0;" parent="1" edge="1">
          <mxGeometry width="50" height="50" relative="1" as="geometry">
            <mxPoint x="569.71" y="410" as="sourcePoint" />
            <mxPoint x="619.71" y="360" as="targetPoint" />
          </mxGeometry>
        </mxCell>
        <mxCell id="AD1VWF7FpgDheTf7ruo7-23" value="" style="endArrow=none;html=1;rounded=0;" parent="1" edge="1">
          <mxGeometry width="50" height="50" relative="1" as="geometry">
            <mxPoint x="589.71" y="340" as="sourcePoint" />
            <mxPoint x="639.71" y="290" as="targetPoint" />
          </mxGeometry>
        </mxCell>
        <mxCell id="AD1VWF7FpgDheTf7ruo7-24" value="" style="endArrow=none;html=1;rounded=0;" parent="1" edge="1">
          <mxGeometry width="50" height="50" relative="1" as="geometry">
            <mxPoint x="589.71" y="410" as="sourcePoint" />
            <mxPoint x="589.71" y="340" as="targetPoint" />
          </mxGeometry>
        </mxCell>
        <mxCell id="AD1VWF7FpgDheTf7ruo7-25" value="" style="endArrow=none;html=1;rounded=0;" parent="1" edge="1">
          <mxGeometry width="50" height="50" relative="1" as="geometry">
            <mxPoint x="639.71" y="360" as="sourcePoint" />
            <mxPoint x="639.71" y="290" as="targetPoint" />
          </mxGeometry>
        </mxCell>
        <mxCell id="AD1VWF7FpgDheTf7ruo7-26" value="" style="endArrow=none;html=1;rounded=0;" parent="1" edge="1">
          <mxGeometry width="50" height="50" relative="1" as="geometry">
            <mxPoint x="589.71" y="410" as="sourcePoint" />
            <mxPoint x="639.71" y="360" as="targetPoint" />
          </mxGeometry>
        </mxCell>
        <mxCell id="AD1VWF7FpgDheTf7ruo7-27" value="" style="endArrow=none;html=1;rounded=0;" parent="1" edge="1">
          <mxGeometry width="50" height="50" relative="1" as="geometry">
            <mxPoint x="569.71" y="410" as="sourcePoint" />
            <mxPoint x="589.71" y="410" as="targetPoint" />
          </mxGeometry>
        </mxCell>
        <mxCell id="AD1VWF7FpgDheTf7ruo7-28" value="" style="endArrow=none;html=1;rounded=0;" parent="1" edge="1">
          <mxGeometry width="50" height="50" relative="1" as="geometry">
            <mxPoint x="569.71" y="340" as="sourcePoint" />
            <mxPoint x="589.71" y="340" as="targetPoint" />
          </mxGeometry>
        </mxCell>
        <mxCell id="AD1VWF7FpgDheTf7ruo7-29" value="" style="endArrow=none;html=1;rounded=0;" parent="1" edge="1">
          <mxGeometry width="50" height="50" relative="1" as="geometry">
            <mxPoint x="619.71" y="360" as="sourcePoint" />
            <mxPoint x="639.71" y="360" as="targetPoint" />
          </mxGeometry>
        </mxCell>
        <mxCell id="AD1VWF7FpgDheTf7ruo7-30" value="" style="endArrow=none;html=1;rounded=0;" parent="1" edge="1">
          <mxGeometry width="50" height="50" relative="1" as="geometry">
            <mxPoint x="619.71" y="290" as="sourcePoint" />
            <mxPoint x="639.71" y="290" as="targetPoint" />
          </mxGeometry>
        </mxCell>
        <mxCell id="AD1VWF7FpgDheTf7ruo7-31" value="" style="endArrow=none;html=1;rounded=0;" parent="1" edge="1">
          <mxGeometry width="50" height="50" relative="1" as="geometry">
            <mxPoint x="599.71" y="340" as="sourcePoint" />
            <mxPoint x="649.71" y="290" as="targetPoint" />
          </mxGeometry>
        </mxCell>
        <mxCell id="AD1VWF7FpgDheTf7ruo7-32" value="" style="endArrow=none;html=1;rounded=0;" parent="1" edge="1">
          <mxGeometry width="50" height="50" relative="1" as="geometry">
            <mxPoint x="599.71" y="410" as="sourcePoint" />
            <mxPoint x="599.71" y="340" as="targetPoint" />
          </mxGeometry>
        </mxCell>
        <mxCell id="AD1VWF7FpgDheTf7ruo7-33" value="" style="endArrow=none;html=1;rounded=0;" parent="1" edge="1">
          <mxGeometry width="50" height="50" relative="1" as="geometry">
            <mxPoint x="649.71" y="360" as="sourcePoint" />
            <mxPoint x="649.71" y="290" as="targetPoint" />
          </mxGeometry>
        </mxCell>
        <mxCell id="AD1VWF7FpgDheTf7ruo7-34" value="" style="endArrow=none;html=1;rounded=0;" parent="1" edge="1">
          <mxGeometry width="50" height="50" relative="1" as="geometry">
            <mxPoint x="599.71" y="410" as="sourcePoint" />
            <mxPoint x="649.71" y="360" as="targetPoint" />
          </mxGeometry>
        </mxCell>
        <mxCell id="AD1VWF7FpgDheTf7ruo7-35" value="" style="endArrow=none;html=1;rounded=0;" parent="1" edge="1">
          <mxGeometry width="50" height="50" relative="1" as="geometry">
            <mxPoint x="619.71" y="340" as="sourcePoint" />
            <mxPoint x="669.71" y="290" as="targetPoint" />
          </mxGeometry>
        </mxCell>
        <mxCell id="AD1VWF7FpgDheTf7ruo7-36" value="" style="endArrow=none;html=1;rounded=0;" parent="1" edge="1">
          <mxGeometry width="50" height="50" relative="1" as="geometry">
            <mxPoint x="619.71" y="410" as="sourcePoint" />
            <mxPoint x="619.71" y="340" as="targetPoint" />
          </mxGeometry>
        </mxCell>
        <mxCell id="AD1VWF7FpgDheTf7ruo7-37" value="" style="endArrow=none;html=1;rounded=0;" parent="1" edge="1">
          <mxGeometry width="50" height="50" relative="1" as="geometry">
            <mxPoint x="669.71" y="360" as="sourcePoint" />
            <mxPoint x="669.71" y="290" as="targetPoint" />
          </mxGeometry>
        </mxCell>
        <mxCell id="AD1VWF7FpgDheTf7ruo7-38" value="" style="endArrow=none;html=1;rounded=0;" parent="1" edge="1">
          <mxGeometry width="50" height="50" relative="1" as="geometry">
            <mxPoint x="619.71" y="410" as="sourcePoint" />
            <mxPoint x="669.71" y="360" as="targetPoint" />
          </mxGeometry>
        </mxCell>
        <mxCell id="AD1VWF7FpgDheTf7ruo7-39" value="" style="endArrow=none;html=1;rounded=0;" parent="1" edge="1">
          <mxGeometry width="50" height="50" relative="1" as="geometry">
            <mxPoint x="599.71" y="410" as="sourcePoint" />
            <mxPoint x="619.71" y="410" as="targetPoint" />
          </mxGeometry>
        </mxCell>
        <mxCell id="AD1VWF7FpgDheTf7ruo7-40" value="" style="endArrow=none;html=1;rounded=0;" parent="1" edge="1">
          <mxGeometry width="50" height="50" relative="1" as="geometry">
            <mxPoint x="599.71" y="340" as="sourcePoint" />
            <mxPoint x="619.71" y="340" as="targetPoint" />
          </mxGeometry>
        </mxCell>
        <mxCell id="AD1VWF7FpgDheTf7ruo7-41" value="" style="endArrow=none;html=1;rounded=0;" parent="1" edge="1">
          <mxGeometry width="50" height="50" relative="1" as="geometry">
            <mxPoint x="649.71" y="360" as="sourcePoint" />
            <mxPoint x="669.71" y="360" as="targetPoint" />
          </mxGeometry>
        </mxCell>
        <mxCell id="AD1VWF7FpgDheTf7ruo7-42" value="" style="endArrow=none;html=1;rounded=0;" parent="1" edge="1">
          <mxGeometry width="50" height="50" relative="1" as="geometry">
            <mxPoint x="649.71" y="290" as="sourcePoint" />
            <mxPoint x="669.71" y="290" as="targetPoint" />
          </mxGeometry>
        </mxCell>
        <mxCell id="AD1VWF7FpgDheTf7ruo7-56" value="" style="ellipse;whiteSpace=wrap;html=1;aspect=fixed;" parent="1" vertex="1">
          <mxGeometry x="350" y="-1200" width="80" height="80" as="geometry" />
        </mxCell>
        <mxCell id="AD1VWF7FpgDheTf7ruo7-57" value="" style="ellipse;whiteSpace=wrap;html=1;aspect=fixed;" parent="1" vertex="1">
          <mxGeometry x="-1250" y="-40" width="80" height="80" as="geometry" />
        </mxCell>
        <mxCell id="AD1VWF7FpgDheTf7ruo7-58" value="" style="ellipse;whiteSpace=wrap;html=1;aspect=fixed;" parent="1" vertex="1">
          <mxGeometry x="2390" y="-40" width="80" height="80" as="geometry" />
        </mxCell>
        <mxCell id="AD1VWF7FpgDheTf7ruo7-59" value="" style="ellipse;whiteSpace=wrap;html=1;aspect=fixed;" parent="1" vertex="1">
          <mxGeometry x="280" y="1650" width="80" height="80" as="geometry" />
        </mxCell>
        <mxCell id="AD1VWF7FpgDheTf7ruo7-65" value="" style="rounded=0;whiteSpace=wrap;html=1;strokeColor=#9673a6;fillColor=#e1d5e7;" parent="1" vertex="1">
          <mxGeometry x="162" y="200" width="16" height="60" as="geometry" />
        </mxCell>
        <mxCell id="AD1VWF7FpgDheTf7ruo7-66" value="" style="rounded=0;whiteSpace=wrap;html=1;strokeColor=#9673a6;fillColor=#e1d5e7;" parent="1" vertex="1">
          <mxGeometry x="212" y="160" width="16" height="60" as="geometry" />
        </mxCell>
        <mxCell id="AD1VWF7FpgDheTf7ruo7-67" value="" style="endArrow=none;html=1;rounded=0;fillColor=#e1d5e7;exitX=0;exitY=0;exitDx=0;exitDy=0;entryX=0;entryY=0;entryDx=0;entryDy=0;strokeColor=#9673a6;" parent="1" source="AD1VWF7FpgDheTf7ruo7-65" target="AD1VWF7FpgDheTf7ruo7-66" edge="1">
          <mxGeometry width="50" height="50" relative="1" as="geometry">
            <mxPoint x="342" y="300" as="sourcePoint" />
            <mxPoint x="392" y="250" as="targetPoint" />
          </mxGeometry>
        </mxCell>
        <mxCell id="AD1VWF7FpgDheTf7ruo7-70" value="" style="endArrow=none;html=1;rounded=0;fillColor=#e1d5e7;exitX=0;exitY=0;exitDx=0;exitDy=0;entryX=0;entryY=0;entryDx=0;entryDy=0;strokeColor=#9673a6;" parent="1" edge="1">
          <mxGeometry width="50" height="50" relative="1" as="geometry">
            <mxPoint x="178" y="200" as="sourcePoint" />
            <mxPoint x="228" y="160" as="targetPoint" />
          </mxGeometry>
        </mxCell>
        <mxCell id="AD1VWF7FpgDheTf7ruo7-71" value="" style="endArrow=none;html=1;rounded=0;fillColor=#e1d5e7;exitX=0;exitY=0;exitDx=0;exitDy=0;entryX=0;entryY=0;entryDx=0;entryDy=0;strokeColor=#9673a6;" parent="1" edge="1">
          <mxGeometry width="50" height="50" relative="1" as="geometry">
            <mxPoint x="170" y="200" as="sourcePoint" />
            <mxPoint x="220" y="160" as="targetPoint" />
          </mxGeometry>
        </mxCell>
        <mxCell id="AD1VWF7FpgDheTf7ruo7-73" value="" style="endArrow=none;html=1;rounded=0;fillColor=#e1d5e7;exitX=0;exitY=0;exitDx=0;exitDy=0;entryX=0;entryY=0;entryDx=0;entryDy=0;strokeColor=#9673a6;" parent="1" edge="1">
          <mxGeometry width="50" height="50" relative="1" as="geometry">
            <mxPoint x="178" y="260" as="sourcePoint" />
            <mxPoint x="228" y="220" as="targetPoint" />
          </mxGeometry>
        </mxCell>
        <mxCell id="AD1VWF7FpgDheTf7ruo7-74" value="" style="endArrow=none;html=1;rounded=0;fillColor=#e1d5e7;exitX=0;exitY=0;exitDx=0;exitDy=0;entryX=0;entryY=0;entryDx=0;entryDy=0;strokeColor=#9673a6;" parent="1" edge="1">
          <mxGeometry width="50" height="50" relative="1" as="geometry">
            <mxPoint x="162" y="260" as="sourcePoint" />
            <mxPoint x="212" y="220" as="targetPoint" />
          </mxGeometry>
        </mxCell>
        <mxCell id="AD1VWF7FpgDheTf7ruo7-75" value="" style="endArrow=none;html=1;rounded=0;fillColor=#e1d5e7;exitX=0;exitY=0;exitDx=0;exitDy=0;entryX=0;entryY=0;entryDx=0;entryDy=0;strokeColor=#9673a6;" parent="1" edge="1">
          <mxGeometry width="50" height="50" relative="1" as="geometry">
            <mxPoint x="170" y="260" as="sourcePoint" />
            <mxPoint x="220" y="220" as="targetPoint" />
          </mxGeometry>
        </mxCell>
        <mxCell id="AD1VWF7FpgDheTf7ruo7-76" value="" style="endArrow=none;html=1;rounded=0;fillColor=#e1d5e7;exitX=0;exitY=0;exitDx=0;exitDy=0;entryX=0;entryY=0;entryDx=0;entryDy=0;strokeColor=#9673a6;" parent="1" edge="1">
          <mxGeometry width="50" height="50" relative="1" as="geometry">
            <mxPoint x="166" y="260" as="sourcePoint" />
            <mxPoint x="216" y="220" as="targetPoint" />
          </mxGeometry>
        </mxCell>
        <mxCell id="AD1VWF7FpgDheTf7ruo7-77" value="" style="endArrow=none;html=1;rounded=0;fillColor=#e1d5e7;exitX=0;exitY=0;exitDx=0;exitDy=0;entryX=0;entryY=0;entryDx=0;entryDy=0;strokeColor=#9673a6;" parent="1" edge="1">
          <mxGeometry width="50" height="50" relative="1" as="geometry">
            <mxPoint x="174" y="260" as="sourcePoint" />
            <mxPoint x="224" y="220" as="targetPoint" />
          </mxGeometry>
        </mxCell>
        <mxCell id="AD1VWF7FpgDheTf7ruo7-78" value="" style="endArrow=none;html=1;rounded=0;fillColor=#e1d5e7;exitX=0;exitY=0;exitDx=0;exitDy=0;entryX=0;entryY=0;entryDx=0;entryDy=0;strokeColor=#9673a6;" parent="1" edge="1">
          <mxGeometry width="50" height="50" relative="1" as="geometry">
            <mxPoint x="166" y="200" as="sourcePoint" />
            <mxPoint x="216" y="160" as="targetPoint" />
          </mxGeometry>
        </mxCell>
        <mxCell id="AD1VWF7FpgDheTf7ruo7-79" value="" style="endArrow=none;html=1;rounded=0;fillColor=#e1d5e7;exitX=0;exitY=0;exitDx=0;exitDy=0;entryX=0;entryY=0;entryDx=0;entryDy=0;strokeColor=#9673a6;" parent="1" edge="1">
          <mxGeometry width="50" height="50" relative="1" as="geometry">
            <mxPoint x="174.00000000000023" y="200" as="sourcePoint" />
            <mxPoint x="224.00000000000023" y="160" as="targetPoint" />
          </mxGeometry>
        </mxCell>
        <mxCell id="AD1VWF7FpgDheTf7ruo7-80" value="" style="endArrow=none;html=1;rounded=0;fillColor=#e1d5e7;entryX=0.25;entryY=0;entryDx=0;entryDy=0;exitX=0.25;exitY=1;exitDx=0;exitDy=0;strokeColor=#9673a6;" parent="1" source="AD1VWF7FpgDheTf7ruo7-65" target="AD1VWF7FpgDheTf7ruo7-65" edge="1">
          <mxGeometry width="50" height="50" relative="1" as="geometry">
            <mxPoint x="191" y="253" as="sourcePoint" />
            <mxPoint x="241" y="203" as="targetPoint" />
          </mxGeometry>
        </mxCell>
        <mxCell id="AD1VWF7FpgDheTf7ruo7-81" value="" style="endArrow=none;html=1;rounded=0;fillColor=#e1d5e7;entryX=0.25;entryY=0;entryDx=0;entryDy=0;exitX=0.25;exitY=1;exitDx=0;exitDy=0;strokeColor=#9673a6;" parent="1" edge="1">
          <mxGeometry width="50" height="50" relative="1" as="geometry">
            <mxPoint x="169.93999999999977" y="260" as="sourcePoint" />
            <mxPoint x="169.93999999999977" y="200" as="targetPoint" />
          </mxGeometry>
        </mxCell>
        <mxCell id="AD1VWF7FpgDheTf7ruo7-82" value="" style="endArrow=none;html=1;rounded=0;fillColor=#e1d5e7;entryX=0.25;entryY=0;entryDx=0;entryDy=0;exitX=0.25;exitY=1;exitDx=0;exitDy=0;strokeColor=#9673a6;" parent="1" edge="1">
          <mxGeometry width="50" height="50" relative="1" as="geometry">
            <mxPoint x="173.99999999999977" y="260" as="sourcePoint" />
            <mxPoint x="173.99999999999977" y="200" as="targetPoint" />
          </mxGeometry>
        </mxCell>
        <mxCell id="AD1VWF7FpgDheTf7ruo7-83" value="" style="endArrow=none;html=1;rounded=0;fillColor=#e1d5e7;entryX=0.25;entryY=0;entryDx=0;entryDy=0;exitX=0.25;exitY=1;exitDx=0;exitDy=0;strokeColor=#9673a6;" parent="1" edge="1">
          <mxGeometry width="50" height="50" relative="1" as="geometry">
            <mxPoint x="223.99999999999977" y="220" as="sourcePoint" />
            <mxPoint x="223.99999999999977" y="160" as="targetPoint" />
          </mxGeometry>
        </mxCell>
        <mxCell id="AD1VWF7FpgDheTf7ruo7-84" value="" style="endArrow=none;html=1;rounded=0;fillColor=#e1d5e7;entryX=0.25;entryY=0;entryDx=0;entryDy=0;exitX=0.25;exitY=1;exitDx=0;exitDy=0;strokeColor=#9673a6;" parent="1" edge="1">
          <mxGeometry width="50" height="50" relative="1" as="geometry">
            <mxPoint x="219.93999999999977" y="220" as="sourcePoint" />
            <mxPoint x="219.93999999999977" y="160" as="targetPoint" />
          </mxGeometry>
        </mxCell>
        <mxCell id="AD1VWF7FpgDheTf7ruo7-85" value="" style="endArrow=none;html=1;rounded=0;fillColor=#e1d5e7;entryX=0.25;entryY=0;entryDx=0;entryDy=0;exitX=0.25;exitY=1;exitDx=0;exitDy=0;strokeColor=#9673a6;" parent="1" edge="1">
          <mxGeometry width="50" height="50" relative="1" as="geometry">
            <mxPoint x="215.99999999999983" y="220" as="sourcePoint" />
            <mxPoint x="215.99999999999983" y="160" as="targetPoint" />
          </mxGeometry>
        </mxCell>
      </root>
    </mxGraphModel>
  </diagram>
  <diagram id="b3aMa3xxwLDqRlHbKz1_" name="Page-2">
    <mxGraphModel dx="1434" dy="796" grid="1" gridSize="10" guides="1" tooltips="1" connect="1" arrows="1" fold="1" page="1" pageScale="1" pageWidth="827" pageHeight="1169" math="0" shadow="0">
      <root>
        <mxCell id="0" />
        <mxCell id="1" parent="0" />
        <mxCell id="NTnLmlRXKN0YvkF15wD7-1" value="" style="whiteSpace=wrap;html=1;aspect=fixed;fillColor=#000000;" vertex="1" parent="1">
          <mxGeometry x="210" y="245" width="340" height="340" as="geometry" />
        </mxCell>
        <mxCell id="NTnLmlRXKN0YvkF15wD7-2" value="" style="triangle;whiteSpace=wrap;html=1;opacity=80;fillColor=#808080;" vertex="1" parent="1">
          <mxGeometry x="320" y="330" width="160" height="140" as="geometry" />
        </mxCell>
        <mxCell id="NTnLmlRXKN0YvkF15wD7-4" value="" style="ellipse;whiteSpace=wrap;html=1;aspect=fixed;strokeColor=none;gradientColor=none;opacity=50;fillColor=#E6E6E6;" vertex="1" parent="1">
          <mxGeometry x="340" y="330" width="105" height="105" as="geometry" />
        </mxCell>
        <mxCell id="NTnLmlRXKN0YvkF15wD7-5" value="" style="ellipse;whiteSpace=wrap;html=1;aspect=fixed;strokeColor=none;gradientColor=none;opacity=50;fillColor=#7A7A7A;" vertex="1" parent="1">
          <mxGeometry x="290" y="300" width="205" height="205" as="geometry" />
        </mxCell>
      </root>
    </mxGraphModel>
  </diagram>
</mxfile>
